<svg width="24" height="24" viewBox="0 0 24 24" fill="none" xmlns="http://www.w3.org/2000/svg">
<path d="M2.99794 8.25065C2.99784 7.38046 3.21403 6.52388 3.62709 5.75797C4.04014 4.99206 4.6371 4.34084 5.36427 3.86287C6.09144 3.3849 6.92602 3.09517 7.79293 3.01976C8.65985 2.94434 9.53192 3.08559 10.3307 3.43081C11.1295 3.77603 11.8299 4.31439 12.369 4.99746C12.9082 5.68054 13.269 6.48691 13.4192 7.34404C13.5693 8.20118 13.5041 9.0822 13.2293 9.90787C12.9545 10.7335 12.4788 11.4779 11.8449 12.0741C13.04 12.6543 14.0776 13.5141 14.8698 14.5804C15.662 15.6468 16.1855 16.8885 16.3959 18.2001C16.4191 18.3461 16.4133 18.4952 16.3788 18.6389C16.3443 18.7826 16.2819 18.9181 16.195 19.0377C16.1082 19.1573 15.9986 19.2586 15.8726 19.3358C15.7466 19.4131 15.6067 19.4648 15.4607 19.4879C15.3147 19.511 15.1656 19.5052 15.0219 19.4707C14.8782 19.4363 14.7427 19.3738 14.6231 19.287C14.5035 19.2001 14.4022 19.0906 14.325 18.9646C14.2478 18.8386 14.1961 18.6986 14.1729 18.5526C13.948 17.1431 13.2278 15.8599 12.1419 14.9336C11.0559 14.0072 9.67532 13.4984 8.24794 13.4984C6.82056 13.4984 5.43994 14.0072 4.35399 14.9336C3.26805 15.8599 2.54792 17.1431 2.32294 18.5526C2.2997 18.6986 2.24793 18.8386 2.1706 18.9645C2.09327 19.0905 1.99188 19.2 1.87223 19.2868C1.75259 19.3735 1.61702 19.4359 1.47327 19.4703C1.32952 19.5047 1.18041 19.5104 1.03444 19.4871C0.888478 19.4639 0.748521 19.4121 0.622563 19.3348C0.496605 19.2575 0.387112 19.1561 0.300335 19.0364C0.213559 18.9168 0.151199 18.7812 0.116815 18.6375C0.0824319 18.4937 0.0766984 18.3446 0.0999424 18.1986C0.309601 16.8871 0.832834 15.6455 1.62516 14.5795C2.4175 13.5135 3.4555 12.6545 4.65094 12.0756C4.12894 11.5847 3.71299 10.992 3.42871 10.3342C3.14442 9.67634 2.99783 8.96727 2.99794 8.25065ZM16.4979 6.00065C17.3695 6.00126 18.2221 6.25484 18.9523 6.73062C19.6824 7.2064 20.2588 7.88391 20.6114 8.68092C20.964 9.47793 21.0777 10.3601 20.9386 11.2205C20.7995 12.0808 20.4137 12.8823 19.8279 13.5276C20.7415 13.9802 21.5531 14.6142 22.2134 15.3911C22.8736 16.1679 23.3685 17.0711 23.6679 18.0456C23.7274 18.2348 23.7358 18.4362 23.6922 18.6296C23.6486 18.823 23.5547 19.0014 23.4198 19.1467C23.285 19.2921 23.1141 19.3991 22.9246 19.4571C22.735 19.515 22.5335 19.5218 22.3404 19.4766C22.1475 19.432 21.9697 19.3372 21.8251 19.2018C21.6805 19.0664 21.5742 18.8953 21.5169 18.7056C21.2477 17.8362 20.7577 17.0514 20.0947 16.4278C19.4316 15.8042 18.6183 15.3631 17.7339 15.1476C17.4883 15.0883 17.2698 14.9481 17.1136 14.7494C16.9574 14.5508 16.8726 14.3053 16.8729 14.0526V13.5246C16.8728 13.3152 16.9311 13.1099 17.0414 12.9318C17.1516 12.7537 17.3094 12.6099 17.4969 12.5166C17.9517 12.2913 18.3169 11.9188 18.5332 11.4597C18.7495 11.0006 18.8043 10.4818 18.6886 9.98763C18.5728 9.49347 18.2934 9.05295 17.8958 8.73762C17.4981 8.42229 17.0055 8.25067 16.4979 8.25065C16.1996 8.25065 15.9134 8.13212 15.7024 7.92114C15.4915 7.71016 15.3729 7.42402 15.3729 7.12565C15.3729 6.82728 15.4915 6.54113 15.7024 6.33015C15.9134 6.11917 16.1996 6.00065 16.4979 6.00065ZM8.24794 5.25065C7.84843 5.24161 7.45115 5.31249 7.07941 5.4591C6.70766 5.60572 6.36896 5.82513 6.08318 6.10445C5.7974 6.38377 5.57031 6.71737 5.41523 7.08566C5.26015 7.45396 5.18022 7.84952 5.18012 8.24913C5.18002 8.64874 5.25976 9.04434 5.41465 9.41271C5.56954 9.78109 5.79647 10.1148 6.08211 10.3943C6.36775 10.6737 6.70634 10.8933 7.07801 11.0401C7.44968 11.1869 7.84693 11.258 8.24644 11.2491C9.03028 11.2318 9.77619 10.9083 10.3245 10.3479C10.8728 9.78747 11.1799 9.03466 11.1801 8.25063C11.1803 7.4666 10.8736 6.71364 10.3255 6.15294C9.77752 5.59225 9.03178 5.26837 8.24794 5.25065Z" fill="#A3A3A3"/>
</svg>
